<svg width="449" height="375" viewBox="0 0 449 375" fill="none" xmlns="http://www.w3.org/2000/svg">
<g clip-path="url(#clip0_439_2)">
<path d="M20.8635 357.336C27.0916 368.891 40.3098 373.852 40.3098 373.852C40.3098 373.852 43.4303 360.077 37.2022 348.521C30.9741 336.965 17.7559 332.005 17.7559 332.005C17.7559 332.005 14.6354 345.78 20.8635 357.336Z" fill="#1D1D1D"/>
<path d="M25.1443 353.534C36.3885 360.302 40.719 373.745 40.719 373.745C40.719 373.745 26.819 376.215 15.5748 369.447C4.33052 362.679 0 349.236 0 349.236C0 349.236 13.9 346.766 25.1443 353.534Z" fill="#EB5C1F"/>
<path d="M277.242 18.0026H207.085V19.0053H277.242V18.0026Z" fill="#F2F2F2"/>
<path d="M258.199 18.7546H257.197V28.0297H258.199V18.7546Z" fill="#F2F2F2"/>
<path d="M227.631 18.7546H226.629V28.0297H227.631V18.7546Z" fill="#F2F2F2"/>
<path d="M312.821 66.1328H242.665V67.1355H312.821V66.1328Z" fill="#F2F2F2"/>
<path d="M262.709 57.1084H261.707V66.3835H262.709V57.1084Z" fill="#F2F2F2"/>
<path d="M293.277 57.1084H292.275V66.3835H293.277V57.1084Z" fill="#F2F2F2"/>
<path d="M406.029 88.6938H335.872V89.6966H406.029V88.6938Z" fill="#F2F2F2"/>
<path d="M355.917 79.6694H354.915V88.9445H355.917V79.6694Z" fill="#F2F2F2"/>
<path d="M386.485 79.6694H385.483V88.9445H386.485V79.6694Z" fill="#F2F2F2"/>
<path d="M399.013 321.323H328.857V322.326H399.013V321.323Z" fill="#F2F2F2"/>
<path d="M348.901 312.299H347.899V321.574H348.901V312.299Z" fill="#F2F2F2"/>
<path d="M379.469 312.299H378.467V321.574H379.469V312.299Z" fill="#F2F2F2"/>
<path d="M279.246 160.388H209.09V161.39H279.246V160.388Z" fill="#F2F2F2"/>
<path d="M229.135 151.363H228.132V160.638H229.135V151.363Z" fill="#F2F2F2"/>
<path d="M259.703 151.363H258.7V160.638H259.703V151.363Z" fill="#F2F2F2"/>
<path d="M301.295 281.214H231.139V282.217H301.295V281.214Z" fill="#F2F2F2"/>
<path d="M251.184 272.19H250.181V281.465H251.184V272.19Z" fill="#F2F2F2"/>
<path d="M281.752 272.19H280.75V281.465H281.752V272.19Z" fill="#F2F2F2"/>
<path d="M413.545 244.615H343.389V245.618H413.545V244.615Z" fill="#F2F2F2"/>
<path d="M363.434 235.591H362.431V244.866H363.434V235.591Z" fill="#F2F2F2"/>
<path d="M394.002 235.591H393V244.866H394.002V235.591Z" fill="#F2F2F2"/>
<path d="M181.434 352.044H62.7768V351.19H180.58V309.768H72.752L67.5139 298.85L68.2836 298.481L73.2892 308.914H181.434V352.044Z" fill="#2F2E41"/>
<path d="M78.5692 372.969C83.5195 372.969 87.5326 368.954 87.5326 364.001C87.5326 359.048 83.5195 355.033 78.5692 355.033C73.6189 355.033 69.6059 359.048 69.6059 364.001C69.6059 368.954 73.6189 372.969 78.5692 372.969Z" fill="#1D1D1D"/>
<path d="M166.922 372.969C171.872 372.969 175.885 368.954 175.885 364.001C175.885 359.048 171.872 355.033 166.922 355.033C161.972 355.033 157.959 359.048 157.959 364.001C157.959 368.954 161.972 372.969 166.922 372.969Z" fill="#1D1D1D"/>
<path d="M271.067 179.097C274.132 179.097 276.616 176.612 276.616 173.546C276.616 170.48 274.132 167.995 271.067 167.995C268.003 167.995 265.519 170.48 265.519 173.546C265.519 176.612 268.003 179.097 271.067 179.097Z" fill="#3F3D56"/>
<path d="M194.125 295.676H60.7537L31.8953 201.303H223.845L223.67 201.858L194.125 295.676ZM61.3852 294.822H193.499L222.681 202.157H33.049L61.3852 294.822Z" fill="#2F2E41"/>
<path d="M183.714 290.766H66.5693L41.2218 207.068H209.818L209.664 207.56L183.714 290.766Z" fill="white"/>
<path d="M226.236 192.872L225.411 192.653L231.044 171.411H263.812V172.265H231.701L226.236 192.872Z" fill="#2F2E41"/>
<path d="M214.253 229.914H41.221V230.768H214.253V229.914Z" fill="#2F2E41"/>
<path d="M204.344 261.379H50.8427V262.233H204.344V261.379Z" fill="#2F2E41"/>
<path d="M128.294 201.73H127.441V295.249H128.294V201.73Z" fill="#2F2E41"/>
<path d="M166.514 201.703L160.386 295.22L161.238 295.276L167.366 201.759L166.514 201.703Z" fill="#2F2E41"/>
<path d="M89.239 201.702L88.3871 201.758L94.4793 295.277L95.3313 295.221L89.239 201.702Z" fill="#2F2E41"/>
<path d="M449 373.51H0V374.513H449V373.51Z" fill="#2F2E41"/>
<path d="M298.37 31.0219C298.37 31.0219 305.695 51.8814 301.187 55.0906C296.679 58.2998 316.402 84.5079 316.402 84.5079L340.069 78.0896L327.108 56.1603C327.108 56.1603 325.418 34.231 325.418 31.0219C325.418 27.8127 298.37 31.0219 298.37 31.0219Z" fill="#A0616A"/>
<path opacity="0.1" d="M298.37 31.0219C298.37 31.0219 305.695 51.8814 301.187 55.0906C296.679 58.2998 316.402 84.5079 316.402 84.5079L340.069 78.0896L327.108 56.1603C327.108 56.1603 325.418 34.231 325.418 31.0219C325.418 27.8127 298.37 31.0219 298.37 31.0219Z" fill="black"/>
<path d="M286.074 179.713C286.074 179.713 283.936 206.456 286.074 220.362C288.212 234.269 291.42 272.779 291.42 272.779C291.42 272.779 291.42 345.52 303.181 346.59C314.943 347.659 323.496 348.729 324.565 344.45C325.635 340.171 319.219 338.032 322.427 335.892C325.635 333.753 326.704 326.265 322.427 317.707C318.15 309.149 322.427 222.502 322.427 222.502L342.742 277.058C342.742 277.058 344.88 321.986 347.019 328.404C349.157 334.823 344.88 346.59 352.365 347.659C359.849 348.729 368.403 342.311 372.68 340.171C376.957 338.032 366.265 338.032 368.403 336.962C370.541 335.892 376.957 332.683 374.818 331.613C372.68 330.544 370.541 279.197 370.541 279.197C370.541 279.197 364.661 169.551 357.176 165.272C349.692 160.993 344.88 168.363 344.88 168.363L286.074 179.713Z" fill="#756862"/>
<path d="M305.32 342.311V350.868C305.32 350.868 295.697 374.131 305.32 374.131C314.943 374.131 322.427 376.542 322.427 373.333V344.45L305.32 342.311Z" fill="#1D1D1D"/>
<path d="M368.403 342.295V350.853C368.403 350.853 378.026 374.116 368.403 374.116C358.78 374.116 351.296 376.526 351.296 373.317V344.435L368.403 342.295Z" fill="#1D1D1D"/>
<path d="M313.339 46.5329C323.968 46.5329 332.585 37.9122 332.585 27.2779C332.585 16.6437 323.968 8.02295 313.339 8.02295C302.71 8.02295 294.093 16.6437 294.093 27.2779C294.093 37.9122 302.71 46.5329 313.339 46.5329Z" fill="#A0616A"/>
<path d="M307.458 63.1135C307.458 63.1135 312.804 79.1593 321.358 75.9502L329.912 72.741L344.88 175.434C344.88 175.434 333.119 192.55 316.012 181.853C298.904 171.155 307.458 63.1135 307.458 63.1135Z" fill="black"/>
<path d="M322.427 59.9044L327.238 49.7421C327.238 49.7421 355.573 63.1136 359.849 67.3925C364.126 71.6713 364.126 78.0897 364.126 78.0897L356.642 104.833C356.642 104.833 358.78 163.667 358.78 165.807C358.78 167.946 366.265 179.713 360.919 175.434C355.573 171.155 354.503 166.877 350.226 173.295C345.95 179.713 336.327 187.201 336.327 187.201L322.427 59.9044Z" fill="#D3B4A7"/>
<path d="M359.849 136.924L356.642 166.876C356.642 166.876 337.396 183.992 341.673 185.062C345.95 186.131 348.088 181.853 348.088 181.853C348.088 181.853 355.573 189.341 359.849 185.062C364.126 180.783 374.818 140.133 374.818 140.133L359.849 136.924Z" fill="#A0616A"/>
<path d="M313.749 0.0651116C309.482 -0.0874861 304.916 -0.162971 301.319 2.13732C299.664 3.29174 298.212 4.71352 297.023 6.34447C293.52 10.7757 290.493 16.3512 291.794 21.8491L293.305 21.2593C293.305 22.7269 292.979 24.1761 292.351 25.5021C292.564 24.8828 293.276 25.8839 293.086 26.5102L291.421 31.9753C294.158 30.9714 297.563 33.0041 297.979 35.8908C298.17 29.543 298.828 22.2641 303.975 18.5472C306.57 16.6728 309.855 16.1006 313.016 15.5925C315.931 15.1237 318.988 14.6767 321.78 15.637C324.573 16.5973 326.951 19.4548 326.318 22.3406C327.606 21.8968 329.046 22.7947 329.682 23.9994C330.319 25.2041 330.352 26.6252 330.371 27.9877C331.744 28.9582 333.306 27.031 333.866 25.4453C335.179 21.723 336.346 17.7608 335.638 13.8775C334.931 9.99417 331.768 6.28307 327.823 6.2699C328.302 5.74365 328.557 5.05166 328.535 4.34031L325.283 4.06542C326.109 3.94847 326.868 3.54799 327.431 2.93258C326.125 4.36993 315.86 0.140621 313.749 0.0651116Z" fill="#2F2E41"/>
<path d="M312.804 56.6952C312.804 56.6952 304.1 48.1617 300.968 48.6844C297.835 49.2072 293.558 56.6952 293.558 56.6952C293.558 56.6952 267.897 65.253 268.967 73.8108C270.036 82.3685 281.797 124.088 281.797 124.088C281.797 124.088 291.42 174.365 282.866 179.713C274.313 185.062 323.496 198.968 324.565 192.55C325.635 186.131 327.773 121.948 324.565 112.321C321.358 102.693 312.804 56.6952 312.804 56.6952Z" fill="#D3B4A7"/>
<path d="M350.227 73.8108H363.447C363.447 73.8108 372.68 114.46 373.749 118.739C374.818 123.018 376.957 143.343 375.888 143.343C374.818 143.343 353.434 139.064 353.434 142.273L350.227 73.8108Z" fill="#D3B4A7"/>
<path d="M349.779 174.472H299.166C294.227 151.74 293.815 129.778 299.166 108.794H349.779C341.611 129.4 341.101 151.212 349.779 174.472Z" fill="#F2F2F2"/>
<path d="M278.589 146.552L293.558 152.97C293.558 152.97 322.427 157.249 322.427 145.482C322.427 133.715 293.558 140.133 293.558 140.133L283.935 137.055L278.589 146.552Z" fill="#A0616A"/>
<path d="M281.797 67.3925L268.967 70.6016L259.344 127.297C259.344 127.297 256.136 142.273 261.482 143.343C266.828 144.412 281.797 152.97 281.797 152.97C281.797 152.97 283.936 136.924 288.212 136.924L277.52 128.367L283.936 90.9263L281.797 67.3925Z" fill="#D3B4A7"/>
<path d="M100.348 176.932H30.1915V177.935H100.348V176.932Z" fill="#F2F2F2"/>
<path d="M50.2361 167.908H49.2339V177.183H50.2361V167.908Z" fill="#F2F2F2"/>
<path d="M80.8042 167.908H79.802V177.183H80.8042V167.908Z" fill="#F2F2F2"/>
<path d="M124.902 28.531H54.7462V29.5337H124.902V28.531Z" fill="#F2F2F2"/>
<path d="M105.86 29.2831H104.858V38.5582H105.86V29.2831Z" fill="#F2F2F2"/>
<path d="M75.2919 29.2831H74.2897V38.5582H75.2919V29.2831Z" fill="#F2F2F2"/>
<path d="M195.56 127.298H125.404V128.301H195.56V127.298Z" fill="#F2F2F2"/>
<path d="M176.517 128.05H175.515V137.325H176.517V128.05Z" fill="#F2F2F2"/>
<path d="M145.949 128.05H144.947V137.325H145.949V128.05Z" fill="#F2F2F2"/>
<path d="M76.2942 126.797H6.13791V127.8H76.2942V126.797Z" fill="#F2F2F2"/>
<path d="M57.2517 127.549H56.2495V136.824H57.2517V127.549Z" fill="#F2F2F2"/>
<path d="M26.6837 127.549H25.6815V136.824H26.6837V127.549Z" fill="#F2F2F2"/>
<path d="M160.482 76.6613H90.3254V77.664H160.482V76.6613Z" fill="#F2F2F2"/>
<path d="M110.37 67.6368H109.368V76.9119H110.37V67.6368Z" fill="#F2F2F2"/>
<path d="M140.938 67.6368H139.936V76.9119H140.938V67.6368Z" fill="#F2F2F2"/>
</g>
<defs>
<clipPath id="clip0_439_2">
<rect width="449" height="375" fill="white"/>
</clipPath>
</defs>
</svg>
