<svg width="861" height="572" viewBox="0 0 861 572" fill="none" xmlns="http://www.w3.org/2000/svg">
<g clip-path="url(#clip0_371_38)">
<path d="M742.259 465H414.741C411.363 464.996 408.125 463.655 405.736 461.27C403.347 458.886 402.004 455.652 402 452.28V55.7199C402.004 52.3475 403.347 49.1144 405.736 46.7298C408.125 44.3451 411.363 43.0038 414.741 43H742.259C745.637 43.0038 748.875 44.3451 751.264 46.7298C753.653 49.1144 754.996 52.3475 755 55.7199V452.28C754.996 455.652 753.653 458.886 751.264 461.27C748.875 463.655 745.637 464.996 742.259 465ZM414.741 44.4965C411.76 44.4998 408.903 45.6834 406.795 47.7874C404.688 49.8915 403.502 52.7443 403.499 55.7199V452.28C403.502 455.256 404.688 458.108 406.795 460.213C408.903 462.317 411.76 463.5 414.741 463.504H742.259C745.24 463.5 748.097 462.317 750.205 460.213C752.312 458.108 753.498 455.256 753.501 452.28V55.7199C753.498 52.7443 752.312 49.8915 750.205 47.7874C748.097 45.6834 745.24 44.4998 742.259 44.4965H414.741Z" fill="#3F3D56"/>
<path d="M754 74H403V76H754V74Z" fill="#3F3D56"/>
<path d="M420 65C423.314 65 426 62.3137 426 59C426 55.6863 423.314 53 420 53C416.686 53 414 55.6863 414 59C414 62.3137 416.686 65 420 65Z" fill="#3F3D56"/>
<path d="M439 65C442.314 65 445 62.3137 445 59C445 55.6863 442.314 53 439 53C435.686 53 433 55.6863 433 59C433 62.3137 435.686 65 439 65Z" fill="#3F3D56"/>
<path d="M457 65C460.314 65 463 62.3137 463 59C463 55.6863 460.314 53 457 53C453.686 53 451 55.6863 451 59C451 62.3137 453.686 65 457 65Z" fill="#3F3D56"/>
<path d="M691.269 134H457.731C455.15 134 452.675 132.946 450.85 131.071C449.025 129.196 448 126.652 448 124C448 121.348 449.025 118.804 450.85 116.929C452.675 115.054 455.15 114 457.731 114H691.269C693.85 114 696.325 115.054 698.15 116.929C699.975 118.804 701 121.348 701 124C701 126.652 699.975 129.196 698.15 131.071C696.325 132.946 693.85 134 691.269 134ZM457.731 115.538C455.547 115.538 453.453 116.43 451.909 118.017C450.365 119.604 449.497 121.756 449.497 124C449.497 126.244 450.365 128.396 451.909 129.983C453.453 131.57 455.547 132.462 457.731 132.462H691.269C693.453 132.462 695.547 131.57 697.091 129.983C698.636 128.396 699.503 126.244 699.503 124C699.503 121.756 698.636 119.604 697.091 118.017C695.547 116.43 693.453 115.538 691.269 115.538H457.731Z" fill="#3F3D56"/>
<path d="M545.223 271H452.777C449.39 270.996 446.142 269.655 443.747 267.271C441.351 264.886 440.004 261.653 440 258.281V182.719C440.004 179.347 441.351 176.114 443.747 173.729C446.142 171.345 449.39 170.004 452.777 170H545.223C548.61 170.004 551.858 171.345 554.253 173.729C556.649 176.114 557.996 179.347 558 182.719V258.281C557.996 261.653 556.649 264.886 554.253 267.271C551.858 269.655 548.61 270.996 545.223 271ZM452.777 171.496C449.788 171.5 446.923 172.683 444.809 174.787C442.695 176.891 441.507 179.743 441.503 182.719V258.281C441.507 261.257 442.695 264.109 444.809 266.213C446.923 268.317 449.788 269.5 452.777 269.504H545.223C548.212 269.5 551.077 268.317 553.191 266.213C555.305 264.109 556.493 261.257 556.497 258.281V182.719C556.493 179.743 555.305 176.891 553.191 174.787C551.077 172.683 548.212 171.5 545.223 171.496H452.777Z" fill="#3F3D56"/>
<path d="M704.026 173H611.974C605.361 173 600 178.386 600 185.03V260.97C600 267.614 605.361 273 611.974 273H704.026C710.639 273 716 267.614 716 260.97V185.03C716 178.386 710.639 173 704.026 173Z" fill="#F2F2F2"/>
<path d="M545.223 411H452.777C449.39 410.996 446.142 409.655 443.747 407.271C441.351 404.886 440.004 401.653 440 398.281V322.719C440.004 319.347 441.351 316.114 443.747 313.729C446.142 311.345 449.39 310.004 452.777 310H545.223C548.61 310.004 551.858 311.345 554.253 313.729C556.649 316.114 557.996 319.347 558 322.719V398.281C557.996 401.653 556.649 404.886 554.253 407.271C551.858 409.655 548.61 410.996 545.223 411ZM452.777 311.496C449.788 311.5 446.923 312.683 444.809 314.787C442.695 316.891 441.507 319.743 441.503 322.719V398.281C441.507 401.257 442.695 404.109 444.809 406.213C446.923 408.317 449.788 409.5 452.777 409.504H545.223C548.212 409.5 551.077 408.317 553.191 406.213C555.305 404.109 556.493 401.257 556.497 398.281V322.719C556.493 319.743 555.305 316.891 553.191 314.787C551.077 312.683 548.212 311.5 545.223 311.496H452.777Z" fill="#3F3D56"/>
<path d="M704.026 314H611.974C605.361 314 600 319.386 600 326.03V401.97C600 408.614 605.361 414 611.974 414H704.026C710.639 414 716 408.614 716 401.97V326.03C716 319.386 710.639 314 704.026 314Z" fill="white"/>
<path d="M475.748 252C475.731 252 475.714 252 475.698 251.999L465.149 251.612C464.82 251.603 464.506 251.475 464.264 251.254C464.023 251.033 463.87 250.733 463.835 250.409C463.109 244 460.121 211.341 472.638 197.767C474.41 195.807 476.6 194.262 479.05 193.244C481.5 192.225 484.149 191.759 486.804 191.88C486.912 191.886 487.02 191.864 487.115 191.814C487.211 191.765 487.292 191.691 487.348 191.599L489.901 187.629C490.041 187.414 490.239 187.242 490.473 187.132C490.706 187.022 490.966 186.98 491.223 187.009C493.27 187.254 503.706 188.409 508.095 187.152C508.353 187.077 508.629 187.078 508.887 187.157C509.145 187.235 509.374 187.387 509.545 187.593L512.898 191.648C512.956 191.722 513.03 191.78 513.115 191.819C513.201 191.858 513.294 191.877 513.388 191.873C515.093 191.839 521.074 192.166 526.307 197.958C531.975 204.229 537.824 218.38 533.503 250.174C533.458 250.5 533.295 250.8 533.044 251.017C532.794 251.234 532.472 251.354 532.139 251.356H523.831C523.501 251.354 523.183 251.236 522.934 251.022C522.684 250.809 522.52 250.514 522.471 250.191L519.757 231.664C519.735 231.512 519.656 231.373 519.535 231.276C519.414 231.179 519.261 231.131 519.106 231.14C518.951 231.15 518.805 231.216 518.697 231.327C518.589 231.438 518.528 231.585 518.524 231.739L518.337 240.438C518.331 240.696 518.252 240.947 518.107 241.162C517.963 241.377 517.759 241.547 517.521 241.652C514.559 242.94 498.91 248.983 481.614 241.414C481.38 241.31 481.18 241.144 481.036 240.934C480.891 240.724 480.809 240.479 480.797 240.226L480.457 232.322C480.451 232.168 480.386 232.022 480.275 231.913C480.164 231.804 480.016 231.741 479.86 231.735C479.704 231.73 479.551 231.783 479.433 231.884C479.315 231.985 479.24 232.126 479.222 232.279L477.114 250.793C477.074 251.124 476.914 251.43 476.662 251.653C476.411 251.875 476.085 251.999 475.748 252Z" fill="#D3B4A7"/>
<path d="M519.133 389H519.125L478.13 388.74C477.832 388.738 477.545 388.627 477.323 388.428C477.101 388.23 476.959 387.956 476.924 387.66L472.8 352.593C472.775 352.367 472.669 352.157 472.502 352.003C472.334 351.849 472.117 351.76 471.889 351.754C468.635 351.648 460.892 350.905 459.287 346.32C457.858 342.236 461.767 336.213 470.904 328.417C471.06 328.284 471.246 328.192 471.446 328.149C471.646 328.107 471.854 328.115 472.05 328.174C472.246 328.232 472.424 328.339 472.568 328.484C472.713 328.629 472.818 328.808 472.875 329.004L477.619 345.377C477.677 345.574 477.796 345.746 477.959 345.87C478.123 345.993 478.321 346.061 478.526 346.064L517.396 346.325C517.599 346.327 517.798 346.263 517.963 346.143C518.127 346.023 518.249 345.853 518.309 345.658L523.587 328.857C523.646 328.67 523.749 328.499 523.888 328.36C524.026 328.221 524.196 328.117 524.383 328.057C524.571 327.998 524.769 327.984 524.963 328.018C525.156 328.052 525.339 328.132 525.495 328.251C529.096 331.003 540.699 340.451 538.789 346.493C537.789 349.658 533.278 351.422 525.381 351.737C525.154 351.744 524.938 351.833 524.771 351.987C524.605 352.142 524.499 352.35 524.473 352.576L520.348 387.919C520.313 388.217 520.17 388.491 519.946 388.691C519.722 388.89 519.433 389 519.133 389Z" fill="#D3B4A7"/>
<path d="M652.972 256.265C653.557 255.161 654.274 254.132 655.107 253.202L655.116 253.192L655.126 253.182C655.943 252.364 657.006 251.606 658.209 251.914C659.265 252.176 660.275 252.603 661.199 253.181C662.398 253.892 663.356 254.942 663.959 256.193C674.184 248.573 685.952 243.326 698.423 240.83C698.387 240.631 698.339 240.374 698.281 240.068L698.28 240.063C698.257 239.935 698.232 239.797 698.206 239.652C698.091 239.012 697.947 238.215 697.772 237.286M652.972 256.265L698.263 237.193M652.972 256.265C646.02 251.542 637.423 247.679 630.524 244.983C626.992 243.603 623.898 242.526 621.686 241.794C620.581 241.428 619.695 241.148 619.086 240.96C618.847 240.886 618.651 240.826 618.5 240.781M652.972 256.265L618.5 240.781M697.772 237.286L698.263 237.193M697.772 237.286C697.772 237.286 697.772 237.286 697.772 237.286L698.263 237.193M697.772 237.286C696.921 232.785 695.415 225.256 693.646 218.478C692.762 215.088 691.814 211.898 690.854 209.373C690.374 208.11 689.894 207.023 689.422 206.166C689.011 205.419 688.624 204.878 688.27 204.541M698.263 237.193C696.561 228.184 692.228 207.023 688.411 204M688.27 204.541L688.514 204.489L688.411 204M688.27 204.541L686.225 204.973L686.224 204.973L668.569 208.679L668.533 208.687L668.497 208.689L650.968 209.771L650.9 209.775L650.834 209.762L635.304 206.507M688.27 204.541C688.213 204.486 688.156 204.436 688.1 204.392L688.411 204M688.411 204L635.304 206.507M635.304 206.507H635.355V206.007M635.304 206.507L686.121 204.484L668.466 208.19L650.937 209.272L635.355 206.007M635.304 206.507H627.679C627.629 206.656 627.564 206.851 627.484 207.089C627.287 207.683 627.002 208.542 626.656 209.601C625.962 211.72 625.018 214.642 624.018 217.851C622.015 224.278 619.797 231.83 618.904 236.412L618.904 236.416C618.79 236.977 618.703 237.423 618.633 237.927L618.631 237.94L618.631 237.94C618.56 238.366 618.517 238.796 618.5 239.228V240.781M635.304 206.507L635.253 206.497L635.355 206.007M635.355 206.007H627.319C627.319 206.007 620.211 227.09 618.414 236.316C618.3 236.879 618.21 237.338 618.138 237.858L618.5 240.781" stroke="#D3B4A7"/>
<path d="M633.332 387.116C633.829 387.166 633.829 387.166 633.829 387.166L633.829 387.166L633.83 387.163L633.831 387.152L633.835 387.109C633.839 387.07 633.845 387.013 633.853 386.936C633.87 386.784 633.895 386.558 633.928 386.265C633.995 385.679 634.098 384.822 634.239 383.745C634.521 381.59 634.958 378.552 635.576 375.021C636.812 367.954 638.769 358.935 641.652 351.076C644.542 343.2 646.906 339.065 648.524 336.909C649.333 335.832 649.95 335.257 650.346 334.956C650.544 334.805 650.686 334.724 650.769 334.682C650.786 334.674 650.801 334.667 650.813 334.662L650.91 334.659C651.029 334.657 651.203 334.653 651.428 334.648C651.878 334.639 652.528 334.626 653.33 334.611C654.935 334.582 657.145 334.548 659.572 334.525C664.432 334.479 670.139 334.481 673.581 334.668C674.279 334.706 675.023 335.094 675.808 335.847C676.59 336.596 677.368 337.667 678.127 338.974C679.645 341.585 681.041 345.052 682.229 348.533C683.416 352.009 684.388 355.476 685.064 358.076C685.401 359.375 685.665 360.457 685.844 361.213C685.933 361.591 686.001 361.888 686.047 362.09C686.07 362.191 686.088 362.268 686.099 362.32L686.112 362.378L686.115 362.398L686.131 362.519C686.145 362.626 686.166 362.783 686.194 362.986C686.25 363.392 686.332 363.982 686.437 364.716C686.648 366.185 686.952 368.234 687.326 370.554C688.074 375.189 689.106 380.923 690.234 385.274C690.766 387.327 690.447 388.745 689.75 389.748C689.039 390.77 687.879 391.439 686.588 391.869C685.301 392.296 683.935 392.468 682.88 392.531C682.355 392.563 681.912 392.567 681.602 392.563C681.446 392.562 681.325 392.558 681.243 392.555C681.202 392.553 681.17 392.551 681.15 392.55L681.128 392.549L681.123 392.549L681.122 392.549L681.122 392.549L681.122 392.549L680.546 392.512L680.592 393.087C680.652 393.845 680.652 394.607 680.592 395.364L680.592 395.364L680.591 395.374C680.59 395.377 680.576 395.445 680.419 395.565C680.251 395.692 679.985 395.827 679.621 395.954C678.897 396.206 677.889 396.391 676.79 396.465C675.694 396.538 674.533 396.5 673.509 396.321C672.472 396.141 671.636 395.826 671.129 395.395C669.881 394.333 668.878 393.738 667.885 393.338C667.088 393.016 666.3 392.824 665.441 392.615C665.249 392.568 665.053 392.52 664.852 392.47C664.161 392.296 663.32 392.421 662.51 392.648C661.683 392.879 660.814 393.238 660.03 393.609C659.243 393.981 658.53 394.37 658.014 394.665C657.756 394.813 657.547 394.938 657.401 395.026C657.328 395.07 657.272 395.105 657.233 395.129L657.226 395.133C657.164 395.141 657.082 395.149 656.974 395.16C656.283 395.228 654.609 395.367 650.682 395.649C646.795 395.928 645.333 395.138 644.793 394.487C644.525 394.163 644.447 393.832 644.434 393.58C644.427 393.453 644.437 393.347 644.448 393.275C644.453 393.239 644.459 393.213 644.463 393.198C644.464 393.191 644.465 393.186 644.466 393.184C644.466 393.184 644.466 393.184 644.466 393.184L644.466 393.184L644.466 393.183L644.656 392.56L644 392.542C640.55 392.45 638.2 392.037 636.615 391.487C635.032 390.938 634.244 390.264 633.862 389.669C633.483 389.081 633.46 388.508 633.533 388.072C633.57 387.853 633.631 387.67 633.682 387.544C633.708 387.481 633.73 387.433 633.745 387.403C633.753 387.388 633.759 387.377 633.762 387.372L633.764 387.369L633.764 387.368L633.764 387.367L633.764 387.367L633.765 387.367L633.818 387.275L633.829 387.166L633.332 387.116ZM657.192 395.199C657.192 395.199 657.192 395.199 657.192 395.199C657.219 395.243 657.284 395.346 657.439 395.59L657.192 395.199ZM657.367 395.115C657.379 395.112 657.382 395.112 657.37 395.114C657.369 395.115 657.368 395.115 657.367 395.115Z" stroke="#D3B4A7"/>
<path d="M240.947 301.907L240.586 301.858L241.946 292.212C242.155 290.732 241.752 289.231 240.825 288.04C239.898 286.849 238.524 286.065 237.005 285.862L216.035 283.053C214.515 282.849 212.975 283.242 211.753 284.145C210.531 285.048 209.727 286.387 209.518 287.868L202.054 340.788C201.845 342.268 202.248 343.769 203.175 344.96C204.102 346.151 205.476 346.935 206.995 347.138L227.965 349.947C229.485 350.151 231.025 349.758 232.247 348.855C233.469 347.952 234.273 346.613 234.482 345.132L239.617 308.725L239.978 308.773L240.947 301.907Z" fill="#3F3D56"/>
<path d="M111.193 261.18C127.762 261.18 141.193 247.749 141.193 231.18C141.193 214.612 127.762 201.18 111.193 201.18C94.6245 201.18 81.193 214.612 81.193 231.18C81.193 247.749 94.6245 261.18 111.193 261.18Z" fill="#2F2E41"/>
<path d="M112.16 260.653C125.725 260.653 136.721 249.657 136.721 236.092C136.721 222.527 125.725 211.531 112.16 211.531C98.5953 211.531 87.599 222.527 87.599 236.092C87.599 249.657 98.5953 260.653 112.16 260.653Z" fill="#FFB8B8"/>
<path d="M207.251 311.382C206.861 311.774 206.503 312.197 206.179 312.646L156.617 310.894L150.948 300.263L133.786 306.721L141.992 326.517C142.655 328.116 143.819 329.457 145.309 330.339C146.799 331.22 148.535 331.594 150.255 331.405L206.34 325.247C207.643 326.934 209.429 328.185 211.46 328.832C213.491 329.479 215.671 329.493 217.71 328.871C219.749 328.249 221.55 327.021 222.874 325.351C224.198 323.68 224.982 321.646 225.122 319.519C225.262 317.392 224.751 315.273 223.657 313.443C222.563 311.614 220.938 310.161 218.998 309.277C217.058 308.394 214.895 308.122 212.796 308.498C210.698 308.874 208.764 309.88 207.251 311.382Z" fill="#FFB8B8"/>
<path d="M127.184 316.28C126.552 315.997 125.989 315.58 125.533 315.06C125.077 314.539 124.739 313.926 124.541 313.263L117.638 290.093C116.139 286.885 115.974 283.213 117.178 279.882C118.382 276.552 120.858 273.835 124.062 272.327C127.267 270.819 130.938 270.643 134.272 271.838C137.606 273.033 140.33 275.502 141.846 278.702L155.219 298.937C155.6 299.514 155.853 300.167 155.959 300.851C156.066 301.535 156.024 302.234 155.836 302.9C155.648 303.566 155.318 304.184 154.87 304.712C154.422 305.239 153.865 305.664 153.238 305.956L131.195 316.25C130.568 316.543 129.885 316.698 129.193 316.703C128.501 316.708 127.815 316.564 127.184 316.28Z" fill="#D3B4A7"/>
<path d="M175.999 551.511L186.767 545.649L169.282 501.327L153.39 509.978L175.999 551.511Z" fill="#FFB8B8"/>
<path d="M171.339 549.49L192.544 537.947C194.319 536.981 196.267 536.373 198.277 536.16C200.286 535.947 202.317 536.131 204.255 536.703C206.193 537.275 208 538.223 209.571 539.493C211.143 540.763 212.449 542.33 213.415 544.104L213.654 544.544L178.935 563.444L171.339 549.49Z" fill="#1D1D1D"/>
<path d="M57.5117 551.559H69.7707L75.6037 504.271L57.5087 504.272L57.5117 551.559Z" fill="#FFB8B8"/>
<path d="M54.384 547.557L78.5278 547.556C80.5484 547.556 82.5502 547.954 84.417 548.727C86.2837 549.5 87.98 550.634 89.4087 552.062C90.8375 553.491 91.9708 555.187 92.7441 557.054C93.5173 558.921 93.9153 560.922 93.9153 562.942V563.442L54.3847 563.444L54.384 547.557Z" fill="#1D1D1D"/>
<path d="M133.693 341.68L137.693 389.68L182.312 523.536C182.487 524.062 182.551 524.62 182.5 525.172C182.448 525.725 182.282 526.26 182.012 526.745C181.743 527.23 181.375 527.654 180.933 527.989C180.49 528.324 179.983 528.563 179.443 528.692L165.768 531.948C164.893 532.156 163.972 532.064 163.156 531.684C162.34 531.305 161.675 530.661 161.27 529.857L104.226 416.705C104.04 416.336 103.744 416.034 103.38 415.839C103.015 415.645 102.6 415.569 102.19 415.621C101.78 415.672 101.396 415.85 101.091 416.128C100.786 416.407 100.575 416.773 100.487 417.176L75.3828 531.538C75.1873 532.428 74.6933 533.226 73.9827 533.797C73.2721 534.369 72.3876 534.68 71.4758 534.68H58.7539C58.2241 534.681 57.6994 534.576 57.2105 534.372C56.7215 534.167 56.2782 533.868 55.9062 533.491C55.5342 533.113 55.241 532.666 55.0438 532.174C54.8465 531.682 54.7492 531.156 54.7573 530.626C55.9231 451.329 52.0773 360.973 82.693 346.68L87.693 333.68L133.693 341.68Z" fill="#1D1D1D"/>
<path d="M86.253 337.084L81.0975 305.907C80.2441 300.794 80.6916 295.548 82.3988 290.654C84.106 285.76 87.0179 281.374 90.866 277.901C94.6276 274.461 99.1945 272.024 104.146 270.814C109.097 269.604 114.273 269.659 119.197 270.976C119.49 271.054 119.782 271.135 120.075 271.217C126.134 272.952 131.514 276.504 135.489 281.395C139.464 286.285 141.842 292.278 142.303 298.563C143.286 312.103 142.406 331.747 132.624 348.433L132.434 348.757L86.253 337.084Z" fill="#D3B4A7"/>
<path d="M138.146 223.623C132.533 227.491 125.872 229.55 119.055 229.522C121.487 231.208 124.255 232.347 127.169 232.86C118.106 234.804 108.739 234.857 99.6548 233.015C97.6355 232.691 95.6871 232.022 93.895 231.037C93.002 230.538 92.2239 229.857 91.6114 229.038C90.9989 228.219 90.5657 227.28 90.3398 226.282C89.7362 222.834 92.4233 219.7 95.2158 217.589C99.4914 214.405 104.421 212.212 109.648 211.168C114.876 210.123 120.27 210.253 125.44 211.549C128.817 212.422 132.199 213.897 134.392 216.608C136.585 219.319 137.234 223.499 135.145 226.291L138.146 223.623Z" fill="#2F2E41"/>
<path d="M110.798 201.032C113.645 189.536 103.441 176.764 91.6002 177.003C79.5867 177.246 70.7462 188.102 64.6693 198.468C58.5923 208.834 52.5527 220.584 41.3964 225.047C37.7046 226.524 33.704 227.062 29.7532 226.612C25.8025 226.162 22.0252 224.739 18.7599 222.47C15.4947 220.201 12.8435 217.157 11.0442 213.611C9.24488 210.065 8.35363 206.128 8.45036 202.153C6.95244 214.746 9.0277 228.372 17.1491 238.112C25.2706 247.853 40.3825 252.243 51.2445 245.697C57.448 241.958 61.4132 235.46 64.6822 228.996C67.9513 222.533 70.8601 215.717 75.8134 210.433C80.7667 205.148 88.4258 201.641 95.3191 203.864C98.0554 204.747 100.51 206.467 103.337 206.99C106.164 207.514 109.724 206.17 110.11 203.321L110.798 201.032Z" fill="#2F2E41"/>
<path d="M51.6014 409.475C50.582 408.28 49.8369 406.876 49.4187 405.363C49.0005 403.849 48.9192 402.262 49.1807 400.713C49.4422 399.165 50.04 397.692 50.9321 396.4C51.8242 395.107 52.9888 394.026 54.344 393.232L75.6494 297.735L97.2619 306.606L69.5234 397.687C70.7059 400.052 70.9798 402.768 70.2933 405.322C69.6067 407.875 68.0073 410.088 65.7982 411.541C63.5891 412.994 60.9238 413.586 58.3072 413.205C55.6907 412.825 53.3047 411.497 51.6014 409.475Z" fill="#FFB8B8"/>
<path d="M67.2079 311.435C66.8677 310.832 66.6615 310.163 66.6034 309.473C66.5453 308.783 66.6368 308.089 66.8715 307.438L75.0642 284.693C75.7616 281.22 77.8074 278.166 80.7531 276.2C83.6988 274.234 87.304 273.516 90.7781 274.204C94.2523 274.892 97.3119 276.929 99.286 279.87C101.26 282.81 101.988 286.413 101.309 289.889L100.065 314.112C100.029 314.803 99.845 315.478 99.5248 316.092C99.2046 316.706 98.756 317.243 98.2093 317.668C97.6627 318.093 97.031 318.394 96.3572 318.553C95.6834 318.712 94.9834 318.723 94.3048 318.587L70.4542 313.791C69.7755 313.655 69.134 313.374 68.5738 312.967C68.0135 312.561 67.5477 312.038 67.2079 311.435Z" fill="#D3B4A7"/>
<path d="M236.324 287.752L233.76 287.399C233.838 287.705 233.84 288.024 233.765 288.331C233.691 288.637 233.542 288.92 233.332 289.156C233.122 289.391 232.858 289.571 232.562 289.68C232.266 289.789 231.948 289.823 231.636 289.78L220.379 288.233C220.067 288.19 219.77 288.071 219.515 287.886C219.259 287.701 219.053 287.457 218.914 287.174C218.776 286.89 218.709 286.578 218.72 286.263C218.731 285.947 218.819 285.64 218.977 285.367L216.581 285.038C216.055 284.965 215.519 284.997 215.005 285.132C214.491 285.267 214.009 285.501 213.585 285.822C213.162 286.143 212.806 286.544 212.537 287.003C212.269 287.462 212.094 287.969 212.021 288.495L205.038 339.299C204.965 339.826 204.997 340.361 205.132 340.875C205.267 341.389 205.501 341.872 205.822 342.295C206.143 342.719 206.545 343.075 207.003 343.343C207.462 343.611 207.969 343.787 208.495 343.859L228.238 346.573C229.302 346.719 230.379 346.437 231.234 345.789C232.089 345.14 232.652 344.179 232.798 343.115L239.782 292.311C239.928 291.248 239.646 290.17 238.997 289.315C238.349 288.46 237.387 287.898 236.324 287.752Z" fill="white"/>
<path d="M136.253 174.358L132.643 177.293C133.864 176.266 135.134 175.303 136.438 174.391C136.376 174.381 136.315 174.369 136.253 174.358Z" fill="#F2F2F2"/>
<path d="M262.989 419.84C262.643 418.827 262.06 417.912 261.289 417.17C261.004 416.906 260.696 416.668 260.369 416.46C257.759 414.72 253.859 414.33 251.379 416.46C251.129 416.677 250.898 416.914 250.689 417.17C249.949 418.08 249.189 418.97 248.409 419.84C247.129 421.3 245.819 422.71 244.449 424.08C244.059 424.46 243.669 424.85 243.269 425.23C243.039 425.46 242.809 425.68 242.579 425.9C241.699 426.74 240.799 427.55 239.889 428.35C239.409 428.78 238.929 429.2 238.439 429.61C237.709 430.22 236.979 430.83 236.239 431.42C236.169 431.47 236.099 431.52 236.029 431.58C236.009 431.59 235.999 431.61 235.979 431.62C235.969 431.62 235.959 431.62 235.949 431.64C235.922 431.651 235.898 431.668 235.879 431.69C235.659 431.84 235.509 431.94 235.399 432.03C235.439 432.01 235.479 431.98 235.519 431.96C235.339 432.1 235.149 432.24 234.969 432.38C233.219 433.67 231.429 434.91 229.599 436.07C225.071 438.968 220.316 441.493 215.379 443.62C215.049 443.75 214.709 443.89 214.369 444.02C201.443 449.315 187.422 451.382 173.519 450.04C172.099 449.93 170.679 449.78 169.259 449.59C167.619 449.35 165.989 449.06 164.369 448.73C158.201 447.499 152.167 445.678 146.349 443.29C139.071 439.957 132.149 435.897 125.689 431.17C124.689 430.46 123.679 429.75 122.669 429.06C123.819 426.24 124.949 423.42 126.049 420.58C126.599 419.21 127.129 417.84 127.649 416.46C131.739 405.83 135.579 395.1 139.259 384.33C142.979 373.42 146.489 362.447 149.789 351.41C150.129 350.29 150.459 349.17 150.779 348.05C152.509 342.22 154.169 336.377 155.759 330.52C155.909 329.95 156.069 329.39 156.209 328.82C156.669 327.14 157.119 325.46 157.559 323.78C158.559 319.99 156.299 315.46 152.319 314.55C150.403 314.059 148.37 314.33 146.651 315.308C144.931 316.285 143.657 317.892 143.099 319.79C142.669 321.41 142.239 323.02 141.799 324.64C139.689 332.47 137.469 340.273 135.139 348.05C134.799 349.17 134.459 350.29 134.119 351.41C128.979 368.35 123.335 385.12 117.189 401.72C116.449 403.73 115.699 405.733 114.939 407.73C114.569 408.71 114.199 409.69 113.819 410.67C113.089 412.6 112.339 414.53 111.589 416.46C111.159 417.59 110.719 418.72 110.279 419.84C109.989 420.55 109.709 421.26 109.429 421.96C106.578 420.936 103.624 420.225 100.619 419.84L100.139 419.78C97.8092 419.5 95.4533 419.52 93.1288 419.84C89.6499 420.246 86.3026 421.411 83.3235 423.253C80.3445 425.095 77.8065 427.569 75.8888 430.5C71.1188 438.01 71.1788 448.75 77.8688 455.13C84.7588 461.7 95.1888 461.65 103.299 457.54C107.597 455.215 111.22 451.818 113.819 447.68C114.814 446.18 115.729 444.628 116.559 443.03C116.769 443.17 116.979 443.31 117.189 443.46C117.989 444.02 118.789 444.59 119.579 445.15C124.182 448.485 129.033 451.463 134.089 454.06C144.961 459.465 156.664 463.004 168.709 464.53C168.979 464.56 169.239 464.6 169.509 464.63C170.839 464.8 172.179 464.93 173.519 465.04C192.741 466.489 211.987 462.555 229.099 453.68C230.549 452.93 231.985 452.143 233.409 451.32C235.619 450.04 237.779 448.68 239.889 447.24C241.039 446.46 242.159 445.67 243.269 444.84C248.119 441.267 252.641 437.268 256.779 432.89C258.349 431.24 259.852 429.537 261.289 427.78C262.647 426.343 263.43 424.457 263.489 422.48C263.481 421.577 263.312 420.683 262.989 419.84ZM97.3988 443.66C97.6088 443.51 97.8188 443.35 98.0188 443.19C97.9589 443.34 97.6688 443.51 97.3988 443.66ZM100.609 440.43C100.379 440.69 100.169 440.95 99.9388 441.21C99.2391 441.993 98.4874 442.728 97.6888 443.41C97.5788 443.51 97.4588 443.61 97.3388 443.7C97.3375 443.7 97.3362 443.7 97.335 443.701C97.3337 443.701 97.3326 443.702 97.3317 443.703C97.3308 443.704 97.33 443.705 97.3295 443.706C97.329 443.707 97.3288 443.709 97.3288 443.71C97.1844 443.775 97.0441 443.848 96.9088 443.93C96.4788 444.19 96.0388 444.43 95.5888 444.65C94.7078 444.974 93.8013 445.225 92.8788 445.4C92.17 445.452 91.4586 445.458 90.7488 445.42H90.7288C90.239 445.311 89.7551 445.178 89.2788 445.02C89.0388 444.9 88.8088 444.76 88.5788 444.62C88.4888 444.54 88.4088 444.46 88.3588 444.41C88.2611 444.321 88.1709 444.224 88.0889 444.12C88.0889 444.119 88.0887 444.117 88.0882 444.116C88.0877 444.115 88.087 444.114 88.086 444.113C88.0851 444.112 88.084 444.111 88.0827 444.111C88.0815 444.11 88.0802 444.11 88.0789 444.11C87.9688 443.91 87.8488 443.71 87.7389 443.51C87.7332 443.505 87.7296 443.498 87.7289 443.49C87.6489 443.24 87.5789 442.98 87.5189 442.72C87.4972 442.263 87.5005 441.806 87.5289 441.35C87.6631 440.711 87.8435 440.083 88.0689 439.47C88.2714 439.036 88.5018 438.615 88.7589 438.21C88.7789 438.17 88.8789 438.01 88.9889 437.83C88.9989 437.82 88.9989 437.82 88.9989 437.81C89.1489 437.64 89.2989 437.46 89.4589 437.3C89.7289 437 90.0189 436.74 90.3089 436.47C90.8729 436.101 91.4571 435.764 92.0589 435.46C93.0135 435.121 93.9932 434.857 94.9889 434.67C96.4572 434.553 97.9329 434.567 99.3989 434.71C100.787 434.951 102.157 435.288 103.499 435.72C102.686 437.298 101.76 438.815 100.729 440.26C100.689 440.32 100.649 440.38 100.609 440.43ZM89.4888 437.14C89.4007 437.281 89.2967 437.412 89.1788 437.53C89.2582 437.383 89.3632 437.251 89.4888 437.14Z" fill="#EB5C1F"/>
<path d="M232.929 317.71C232.839 320.85 232.749 323.99 232.659 327.13C232.469 334.1 232.272 341.073 232.069 348.05C231.859 355.9 231.639 363.747 231.409 371.59C231.299 375.64 231.185 379.69 231.069 383.74C230.759 394.65 230.452 405.557 230.149 416.46C230.119 417.59 230.079 418.71 230.049 419.84C229.899 425.25 229.749 430.66 229.599 436.07C229.429 441.94 229.262 447.81 229.099 453.68C228.979 458.08 228.855 462.483 228.729 466.89C227.829 498.82 226.929 530.75 226.029 562.68C225.991 564.657 225.188 566.543 223.79 567.941C222.392 569.34 220.506 570.142 218.529 570.18C216.545 570.164 214.646 569.369 213.243 567.966C211.84 566.563 211.045 564.664 211.029 562.68C211.529 544.72 212.035 526.76 212.549 508.8C212.999 492.56 213.455 476.32 213.919 460.08C214.069 454.73 214.219 449.377 214.369 444.02C214.599 435.96 214.825 427.9 215.049 419.84C215.079 418.71 215.119 417.59 215.149 416.46C215.169 415.47 215.199 414.49 215.229 413.5C215.669 397.85 216.109 382.197 216.549 366.54C216.729 360.38 216.902 354.217 217.069 348.05C217.269 341.02 217.469 333.993 217.669 326.97C217.759 323.88 217.839 320.8 217.929 317.71C217.967 315.733 218.769 313.847 220.168 312.449C221.566 311.05 223.452 310.248 225.429 310.21C227.413 310.226 229.311 311.021 230.714 312.424C232.117 313.827 232.913 315.726 232.929 317.71Z" fill="#EB5C1F"/>
<path d="M644.357 319.791C636.492 349.571 627.093 378.924 616.196 407.732C613.189 415.679 610.113 423.609 606.824 431.444L607.58 429.653C606.113 433.385 604.238 436.943 601.991 440.265C601.838 440.479 601.682 440.691 601.524 440.901C602.301 439.907 602.449 439.711 601.967 440.312C601.713 440.613 601.462 440.914 601.199 441.207C600.499 441.991 599.748 442.727 598.95 443.411C598.749 443.582 598.545 443.751 598.338 443.915L599.276 443.186C599.167 443.443 598.403 443.783 598.165 443.929C597.395 444.394 596.591 444.801 595.761 445.147L597.552 444.391C596.191 444.94 594.771 445.329 593.321 445.552L595.315 445.284C593.89 445.481 592.446 445.496 591.017 445.33L593.011 445.598C591.842 445.437 590.698 445.129 589.606 444.681L591.397 445.437C590.815 445.183 590.254 444.884 589.719 444.541C589.447 444.364 588.613 443.732 589.704 444.565C590.837 445.431 589.849 444.64 589.616 444.41C589.422 444.218 589.247 444.01 589.056 443.815C588.174 442.91 590.053 445.371 589.453 444.313C589.133 443.783 588.84 443.237 588.575 442.676L589.331 444.468C588.987 443.615 588.743 442.726 588.603 441.817L588.871 443.81C588.728 442.68 588.727 441.536 588.868 440.406L588.6 442.399C588.783 441.137 589.117 439.902 589.595 438.719L588.839 440.511C589.172 439.715 589.565 438.947 590.017 438.212C590.225 437.833 590.468 437.474 590.745 437.141C590.794 437.157 589.477 438.654 590.176 437.898C590.359 437.7 590.53 437.492 590.715 437.296C591.011 436.982 591.328 436.695 591.64 436.398C592.685 435.404 590.179 437.364 591.384 436.577C592.258 436.003 593.177 435.501 594.133 435.078L592.342 435.834C593.943 435.176 595.621 434.726 597.337 434.494L595.343 434.762C597.491 434.515 599.662 434.541 601.804 434.838L599.81 434.571C602.522 434.982 605.173 435.727 607.702 436.791L605.91 436.034C611.3 438.348 616.073 441.784 620.838 445.152C625.44 448.485 630.29 451.463 635.344 454.059C646.217 459.465 657.92 463.005 669.966 464.533C687.242 466.649 704.772 464.393 720.949 457.971C737.126 451.55 751.431 441.169 762.552 427.781C763.909 426.342 764.69 424.454 764.749 422.477C764.734 420.491 763.946 418.589 762.552 417.174C759.8 414.648 754.603 413.935 751.945 417.174C749.427 420.249 746.72 423.163 743.839 425.901C742.494 427.177 741.113 428.414 739.696 429.611C738.887 430.295 738.067 430.965 737.236 431.622C736.842 431.933 735.617 432.76 737.499 431.425C737.067 431.731 736.654 432.065 736.228 432.379C729.93 437.022 723.105 440.904 715.896 443.944L717.688 443.188C709.951 446.433 701.826 448.659 693.516 449.811L695.51 449.543C686.962 450.667 678.302 450.654 669.757 449.505L671.75 449.773C663.207 448.599 654.852 446.324 646.893 443.002L648.685 443.758C641.005 440.36 633.717 436.139 626.948 431.167C623.426 428.559 619.711 426.221 615.836 424.173C611.321 421.867 606.432 420.381 601.398 419.785C591.959 418.674 582.341 422.35 577.151 430.505C572.376 438.01 572.437 448.749 579.125 455.13C586.013 461.703 596.444 461.647 604.561 457.536C612.378 453.576 617.074 445.35 620.376 437.594C627.807 420.139 634.386 402.28 640.516 384.331C646.58 366.573 652.079 348.635 657.014 330.518C657.625 328.274 658.227 326.028 658.821 323.779C659.822 319.99 657.56 315.459 653.583 314.553C651.666 314.06 649.632 314.33 647.911 315.307C646.19 316.285 644.915 317.892 644.357 319.791Z" fill="#EB5C1F"/>
<path d="M719.19 317.709L716.49 413.503L713.804 508.797L712.286 562.68C712.303 564.664 713.098 566.562 714.501 567.965C715.904 569.368 717.802 570.164 719.786 570.18C721.763 570.142 723.649 569.34 725.047 567.941C726.445 566.543 727.248 564.658 727.286 562.68L729.986 466.887L732.671 371.593L734.19 317.709C734.173 315.726 733.377 313.828 731.974 312.425C730.571 311.022 728.673 310.226 726.69 310.209C724.712 310.248 722.827 311.05 721.428 312.448C720.03 313.847 719.228 315.732 719.19 317.709Z" fill="#EB5C1F"/>
<path d="M519.887 390.061C511.278 373.268 497.941 359.14 482.255 348.757C466.518 338.389 448.461 332.074 429.692 330.377C427.232 330.153 424.765 330.023 422.293 329.984C419.372 329.941 375.427 342.616 360.706 352.966C345.993 363.191 333.89 376.73 325.373 392.493C316.871 408.343 312.689 426.15 313.247 444.127C313.976 462.212 319.017 479.861 327.95 495.603C336.761 511.293 349.272 524.594 364.394 534.348C379.732 544.135 395.139 570.084 413.249 571C431.494 571.923 452.303 547.445 468.944 540.013C485.585 532.519 499.971 520.794 510.669 506.008C521.065 491.517 527.79 474.721 530.268 457.06C532.842 438.977 531.642 420.327 525.467 403.044C523.883 398.603 522.019 394.266 519.887 390.061C518.107 386.555 512.891 385.265 509.625 387.37C507.943 388.406 506.725 390.05 506.224 391.961C505.723 393.873 505.977 395.903 506.935 397.631C507.98 399.69 508.952 401.782 509.85 403.909L509.094 402.117C512.494 410.292 514.806 418.879 515.971 427.656L515.703 425.662C516.941 435.184 516.919 444.828 515.636 454.344L515.904 452.35C514.608 461.866 512.068 471.17 508.35 480.025L509.106 478.233C507.193 482.751 504.964 487.128 502.434 491.331C501.152 493.455 499.792 495.529 498.354 497.553C497.722 498.441 497.071 499.314 496.415 500.184C495.558 501.32 497.582 498.701 496.697 499.815C496.546 500.004 496.397 500.195 496.245 500.384C495.791 500.952 495.33 501.514 494.863 502.072C491.745 505.791 488.343 509.263 484.687 512.455C483.776 513.25 482.85 514.027 481.909 514.786C481.44 515.165 480.977 515.559 480.488 515.911C480.507 515.898 482.068 514.712 481.144 515.4C480.853 515.617 480.565 515.836 480.274 516.052C478.334 517.489 476.343 518.853 474.3 520.144C469.596 523.107 464.662 525.687 459.544 527.857L461.336 527.101C452.508 530.817 443.229 533.356 433.739 534.653L435.733 534.385C426.248 535.667 416.634 535.684 407.144 534.435L409.138 534.703C400.513 533.545 392.076 531.264 384.042 527.919L385.834 528.675C381.181 526.71 376.694 524.372 372.418 521.684C370.302 520.35 368.241 518.935 366.234 517.436C365.948 517.223 365.664 517.006 365.379 516.791C364.464 516.1 366.037 517.301 366.05 517.309C365.517 516.927 365.005 516.518 364.515 516.084C363.546 515.295 362.592 514.488 361.653 513.662C357.897 510.355 354.39 506.775 351.16 502.953C350.351 501.997 349.56 501.027 348.786 500.042C348.451 499.616 347.839 498.752 349.19 500.571C349.012 500.332 348.828 500.097 348.649 499.859C348.218 499.287 347.792 498.711 347.373 498.131C345.904 496.099 344.508 494.017 343.185 491.885C340.195 487.059 337.585 482.008 335.38 476.777L336.136 478.568C332.527 469.982 330.059 460.959 328.795 451.731L329.063 453.725C327.923 445.219 327.907 436.6 329.015 428.089L328.747 430.083C329.883 421.842 332.1 413.786 335.341 406.124L334.585 407.916C336.625 403.119 339.03 398.487 341.781 394.059C343.158 391.844 344.617 389.682 346.158 387.575C346.508 387.096 346.863 386.62 347.221 386.147C347.545 385.719 348.436 384.653 346.915 386.535C347.064 386.351 347.208 386.161 347.355 385.975C348.201 384.903 349.067 383.848 349.954 382.81C353.312 378.879 356.949 375.196 360.838 371.789C361.82 370.928 362.819 370.085 363.832 369.26C364.293 368.885 364.757 368.514 365.223 368.147C365.41 368 365.599 367.856 365.785 367.709C363.787 369.298 365.23 368.141 365.683 367.801C367.773 366.236 369.918 364.749 372.119 363.34C377.011 360.211 382.158 357.499 387.505 355.232L385.714 355.988C393.474 352.73 427.854 345.039 434.108 345.879L432.114 345.611C441.305 346.894 450.288 349.376 458.834 352.993L457.042 352.237C461.373 354.076 465.581 356.19 469.642 358.566C471.671 359.756 473.66 361.01 475.61 362.329C476.532 362.953 477.445 363.591 478.348 364.244C478.799 364.57 479.248 364.899 479.694 365.233C479.942 365.418 480.188 365.605 480.435 365.791C481.475 366.57 479.004 364.662 480.093 365.524C483.739 368.388 487.202 371.479 490.461 374.777C492.062 376.407 493.607 378.089 495.098 379.822C495.862 380.712 496.611 381.614 497.344 382.53C497.709 382.985 498.949 384.631 497.429 382.614C497.8 383.107 498.176 383.597 498.543 384.093C501.703 388.371 504.51 392.898 506.935 397.631C508.728 401.129 513.922 402.433 517.196 400.322C518.879 399.287 520.098 397.642 520.599 395.731C521.1 393.819 520.845 391.789 519.887 390.061Z" fill="#EB5C1F"/>
<path d="M95.2488 450C101.324 450 106.249 445.075 106.249 439C106.249 432.925 101.324 428 95.2488 428C89.1736 428 84.2488 432.925 84.2488 439C84.2488 445.075 89.1736 450 95.2488 450Z" fill="#EB5C1F"/>
<path d="M227.249 570C233.324 570 238.249 565.075 238.249 559C238.249 552.925 233.324 548 227.249 548C221.174 548 216.249 552.925 216.249 559C216.249 565.075 221.174 570 227.249 570Z" fill="#EB5C1F"/>
<path d="M728.249 570C734.324 570 739.249 565.075 739.249 559C739.249 552.925 734.324 548 728.249 548C722.174 548 717.249 552.925 717.249 559C717.249 565.075 722.174 570 728.249 570Z" fill="#EB5C1F"/>
<path d="M755.249 430C761.324 430 766.249 425.075 766.249 419C766.249 412.925 761.324 408 755.249 408C749.174 408 744.249 412.925 744.249 419C744.249 425.075 749.174 430 755.249 430Z" fill="#EB5C1F"/>
<path d="M723.249 328C729.324 328 734.249 323.075 734.249 317C734.249 310.925 729.324 306 723.249 306C717.174 306 712.249 310.925 712.249 317C712.249 323.075 717.174 328 723.249 328Z" fill="#EB5C1F"/>
<path d="M264.249 419C264.242 421.81 263.156 424.509 261.214 426.54C259.272 428.571 256.624 429.778 253.817 429.911C251.011 430.044 248.26 429.092 246.136 427.254C244.011 425.415 242.674 422.83 242.402 420.034C242.13 417.237 242.944 414.443 244.675 412.23C246.406 410.016 248.921 408.553 251.701 408.143C254.481 407.732 257.312 408.406 259.608 410.025C261.905 411.644 263.491 414.084 264.039 416.84C264.18 417.551 264.25 418.275 264.249 419Z" fill="#EB5C1F"/>
<path d="M233.249 317C233.242 319.81 232.156 322.509 230.214 324.54C228.272 326.571 225.624 327.778 222.817 327.911C220.011 328.044 217.26 327.092 215.136 325.254C213.011 323.415 211.674 320.83 211.402 318.034C211.13 315.237 211.944 312.443 213.675 310.23C215.406 308.016 217.921 306.553 220.701 306.143C223.481 305.732 226.312 306.406 228.608 308.025C230.905 309.644 232.491 312.084 233.039 314.84C233.18 315.551 233.25 316.275 233.249 317Z" fill="#EB5C1F"/>
<path d="M599.249 454C605.324 454 610.249 449.075 610.249 443C610.249 436.925 605.324 432 599.249 432C593.174 432 588.249 436.925 588.249 443C588.249 449.075 593.174 454 599.249 454Z" fill="#EB5C1F"/>
<path d="M858.941 570.841L1.19067 571.148C1.03431 571.148 0.879476 571.117 0.735016 571.057C0.590556 570.997 0.459305 570.91 0.34874 570.799C0.238175 570.689 0.150459 570.557 0.0906219 570.413C0.0307847 570.268 0 570.114 0 569.957C0 569.801 0.0307847 569.646 0.0906219 569.502C0.150459 569.357 0.238175 569.226 0.34874 569.115C0.459305 569.005 0.590556 568.917 0.735016 568.857C0.879476 568.797 1.03431 568.767 1.19067 568.767L858.941 568.459C859.256 568.46 859.558 568.586 859.78 568.809C860.003 569.032 860.128 569.335 860.128 569.65C860.128 569.965 860.003 570.267 859.78 570.491C859.558 570.714 859.256 570.84 858.941 570.841Z" fill="#1D1D1D"/>
</g>
<defs>
<clipPath id="clip0_371_38">
<rect width="860.131" height="571.148" fill="white"/>
</clipPath>
</defs>
</svg>
