<svg width="371" height="258" viewBox="0 0 371 258" fill="none" xmlns="http://www.w3.org/2000/svg">
<g clip-path="url(#clip0_407_255)">
<path d="M61.2844 52.6831C67.3089 49.5012 69.6133 42.038 66.4314 36.0135C63.2495 29.989 55.7862 27.6846 49.7618 30.8665C43.7373 34.0484 41.4329 41.5117 44.6148 47.5361C47.7967 53.5606 55.2599 55.865 61.2844 52.6831Z" fill="#2F2E41"/>
<path d="M109.559 51.6179L98.2722 54.8667C94.4253 55.9706 91.8441 59.3642 91.5268 63.1414C89.2945 63.1669 86.9955 63.3864 84.6461 63.8017L81.4531 57.7562C79.0413 53.1799 73.3212 51.4172 68.7632 53.8245L58.3681 59.3148C53.7859 61.7349 52.0331 67.4445 54.449 72.0187L57.6589 78.0962C56.005 79.7797 54.5476 81.5442 53.2582 83.384C49.9532 81.5045 45.6847 81.7133 42.6001 84.2704L33.5455 91.7651C29.5728 95.0579 29.014 101.019 32.3153 105.007L41.3122 115.858C44.5991 119.839 50.5638 120.395 54.5405 117.1L57.4039 114.727C60.2731 116.257 63.6562 117.264 67.4972 117.625C75.5004 118.382 84.489 116.382 92.8235 111.981C105.576 105.245 113.852 94.3162 115.022 84.2796L118.655 83.2374C123.613 81.8087 126.518 76.5725 125.083 71.6135L121.197 58.0634C119.76 53.0902 114.522 50.1912 109.559 51.6179ZM90.6194 107.817C83.0906 111.794 75.0333 113.624 67.9381 112.936C65.5115 112.711 63.3239 112.19 61.3842 111.419L63.5765 109.6C67.5593 106.307 68.1182 100.346 64.8211 96.3656L56.7389 86.6061C57.6948 85.1835 58.7655 83.8129 59.9731 82.4882L61.0297 84.4887C63.4414 89.0549 69.1532 90.8219 73.7274 88.406L84.1226 82.9157C88.6848 80.5061 90.4435 74.7884 88.0339 70.2261L86.9223 68.1214C88.7275 67.8601 90.4829 67.7279 92.1785 67.7346L95.7161 80.0534C97.1529 85.0165 102.387 87.9177 107.352 86.4847L110.117 85.691C108.378 93.6392 101.175 102.242 90.6194 107.817Z" fill="#2F2E41"/>
<path d="M104.83 48.0241C110.855 44.8422 113.159 37.3789 109.977 31.3544C106.796 25.33 99.3323 23.0256 93.3079 26.2075C87.2834 29.3893 84.979 36.8526 88.1609 42.8771C91.3428 48.9016 98.806 51.206 104.83 48.0241Z" fill="#2F2E41"/>
<path d="M35.347 84.43C40.596 80.0785 41.3092 72.3034 36.9757 67.0499C32.6204 61.8131 24.8487 61.0776 19.5957 65.4313C14.3526 69.7745 13.6213 77.5542 17.9708 82.7993C22.3184 88.0503 30.096 88.7776 35.347 84.43Z" fill="#2F2E41"/>
</g>
<g clip-path="url(#clip1_407_255)">
<path d="M218.132 92.0635H216.951V59.7197C216.951 57.2614 216.467 54.8271 215.526 52.556C214.586 50.2848 213.207 48.2211 211.469 46.4828C209.731 44.7445 207.668 43.3657 205.397 42.4249C203.126 41.4842 200.692 41 198.234 41H129.717C127.259 41 124.826 41.4842 122.555 42.4249C120.284 43.3657 118.22 44.7445 116.482 46.4828C114.744 48.2211 113.365 50.2848 112.425 52.556C111.484 54.8271 111 57.2614 111 59.7197V237.16C111 239.618 111.484 242.053 112.425 244.324C113.365 246.595 114.744 248.659 116.482 250.397C118.22 252.135 120.284 253.514 122.555 254.455C124.826 255.396 127.259 255.88 129.717 255.88H198.234C200.692 255.88 203.126 255.396 205.397 254.455C207.668 253.514 209.731 252.135 211.469 250.397C213.207 248.659 214.586 246.595 215.526 244.324C216.467 242.053 216.951 239.618 216.951 237.16V115.086H218.132V92.0635Z" fill="#2F2E41"/>
<path d="M198.989 45.8702H190.045C190.457 46.8787 190.614 47.9729 190.503 49.0563C190.391 50.1398 190.016 51.1793 189.408 52.0833C188.801 52.9873 187.98 53.728 187.019 54.2401C186.058 54.7523 184.986 55.0202 183.897 55.0203H144.645C143.556 55.0202 142.483 54.7523 141.522 54.2401C140.561 53.728 139.741 52.9873 139.133 52.0833C138.526 51.1793 138.15 50.1398 138.039 49.0563C137.928 47.9729 138.085 46.8787 138.496 45.8702H130.143C128.307 45.8702 126.489 46.2318 124.794 46.9343C123.098 47.6369 121.557 48.6666 120.259 49.9647C118.961 51.2629 117.931 52.804 117.229 54.5001C116.526 56.1962 116.165 58.014 116.165 59.8498V237.03C116.165 238.866 116.526 240.684 117.229 242.38C117.931 244.076 118.961 245.617 120.259 246.915C121.557 248.213 123.098 249.243 124.794 249.946C126.489 250.648 128.307 251.01 130.143 251.01H198.989C200.825 251.01 202.642 250.648 204.338 249.946C206.034 249.243 207.575 248.213 208.873 246.915C210.171 245.617 211.201 244.076 211.903 242.38C212.605 240.684 212.967 238.866 212.967 237.03V59.8498C212.967 58.014 212.605 56.1962 211.903 54.5001C211.201 52.804 210.171 51.2629 208.873 49.9647C207.575 48.6666 206.034 47.6369 204.338 46.9343C202.642 46.2318 200.825 45.8702 198.989 45.8702Z" fill="white"/>
<path d="M144.282 81.889H140.172C140.027 81.889 139.889 81.9464 139.787 82.0487C139.684 82.1509 139.627 82.2895 139.627 82.4341V84.2385C139.627 84.3831 139.684 84.5217 139.787 84.6239C139.889 84.7262 140.027 84.7836 140.172 84.7836H140.853V87.4873H143.601V84.7836H144.282C144.427 84.7836 144.566 84.7262 144.668 84.6239C144.77 84.5217 144.827 84.3831 144.827 84.2385V82.4341C144.827 82.2895 144.77 82.1509 144.668 82.0487C144.566 81.9464 144.427 81.889 144.282 81.889Z" fill="#E6E6E6"/>
<path d="M148.4 98.4036C145.882 94.7195 144.595 90.3329 144.723 85.8725C144.725 85.7695 144.692 85.669 144.629 85.5879C144.565 85.5068 144.476 85.4502 144.375 85.4276V84.6479H140.034V85.4168H139.974C139.856 85.4169 139.743 85.464 139.659 85.5477C139.576 85.6313 139.529 85.7447 139.529 85.8629C139.529 85.8737 139.53 85.8845 139.53 85.8953C139.872 90.6635 138.718 94.9396 136.066 98.7234C135.913 98.9409 135.835 99.202 135.843 99.4675L136.318 114.153C136.33 114.481 136.467 114.791 136.702 115.02C136.937 115.249 137.251 115.378 137.578 115.38H147.398C147.729 115.378 148.047 115.246 148.282 115.012C148.518 114.779 148.653 114.463 148.659 114.132L148.842 99.8729C148.847 99.3496 148.693 98.837 148.4 98.4036Z" fill="#E6E6E6"/>
<path d="M146.845 103.282H138.298C138.172 103.282 138.047 103.309 137.932 103.362C137.817 103.415 137.715 103.492 137.632 103.588C137.55 103.684 137.489 103.797 137.454 103.918C137.42 104.04 137.412 104.168 137.431 104.293L138.722 112.689H146.139L147.708 104.321C147.731 104.194 147.727 104.064 147.695 103.939C147.662 103.814 147.603 103.698 147.52 103.599C147.438 103.5 147.335 103.42 147.218 103.365C147.102 103.31 146.974 103.282 146.845 103.282Z" fill="white"/>
<path d="M190.041 125.882H185.931C185.786 125.882 185.648 125.939 185.545 126.042C185.443 126.144 185.386 126.282 185.386 126.427V128.231C185.386 128.376 185.443 128.515 185.545 128.617C185.648 128.719 185.786 128.777 185.931 128.777H186.612V131.48H189.36V128.777H190.041C190.186 128.777 190.325 128.719 190.427 128.617C190.529 128.515 190.586 128.376 190.586 128.231V126.427C190.586 126.282 190.529 126.144 190.427 126.042C190.325 125.939 190.186 125.882 190.041 125.882Z" fill="#E6E6E6"/>
<path d="M194.159 142.397C191.641 138.712 190.354 134.326 190.482 129.865C190.484 129.762 190.451 129.662 190.388 129.581C190.324 129.5 190.235 129.443 190.134 129.421V128.641H185.793V129.41H185.733C185.674 129.41 185.617 129.421 185.563 129.444C185.509 129.466 185.459 129.499 185.418 129.541C185.377 129.582 185.344 129.631 185.322 129.685C185.299 129.739 185.288 129.797 185.288 129.856C185.288 129.867 185.289 129.877 185.289 129.888C185.631 134.656 184.476 138.933 181.825 142.716C181.672 142.934 181.594 143.195 181.602 143.46L182.077 158.146C182.089 158.474 182.226 158.784 182.461 159.013C182.696 159.241 183.01 159.371 183.337 159.373H193.157C193.488 159.37 193.806 159.238 194.041 159.005C194.277 158.772 194.412 158.456 194.418 158.125L194.601 143.866C194.606 143.343 194.452 142.83 194.159 142.397Z" fill="#E6E6E6"/>
<path d="M192.604 147.275H184.057C183.931 147.275 183.806 147.302 183.691 147.355C183.576 147.408 183.473 147.485 183.391 147.581C183.309 147.677 183.248 147.79 183.213 147.911C183.179 148.033 183.171 148.161 183.19 148.286L184.481 156.682H191.898L193.467 148.314C193.49 148.187 193.486 148.057 193.454 147.932C193.421 147.807 193.362 147.691 193.279 147.592C193.197 147.493 193.094 147.413 192.977 147.358C192.86 147.303 192.733 147.275 192.604 147.275Z" fill="white"/>
<path d="M138.503 188.075H136.554C136.485 188.075 136.419 188.102 136.371 188.151C136.322 188.199 136.295 188.265 136.295 188.334V189.19C136.295 189.258 136.322 189.324 136.371 189.372C136.419 189.421 136.485 189.448 136.554 189.448H136.877V190.731H138.18V189.448H138.503C138.572 189.448 138.638 189.421 138.686 189.372C138.735 189.324 138.762 189.258 138.762 189.19V188.334C138.762 188.265 138.735 188.199 138.686 188.151C138.638 188.102 138.572 188.075 138.503 188.075Z" fill="#E6E6E6"/>
<path d="M140.456 195.909C139.262 194.161 138.652 192.08 138.713 189.965C138.714 189.916 138.698 189.868 138.668 189.83C138.638 189.791 138.595 189.764 138.547 189.754V189.384H136.488V189.748H136.46C136.432 189.748 136.405 189.754 136.379 189.765C136.353 189.775 136.33 189.791 136.31 189.811C136.291 189.83 136.275 189.854 136.265 189.879C136.254 189.905 136.249 189.932 136.249 189.96C136.249 189.965 136.249 189.97 136.249 189.975C136.439 192.134 135.857 194.291 134.606 196.06C134.534 196.164 134.497 196.287 134.501 196.413L134.726 203.379C134.731 203.535 134.796 203.682 134.908 203.791C135.019 203.899 135.168 203.96 135.323 203.961H139.981C140.139 203.96 140.289 203.898 140.401 203.787C140.512 203.676 140.577 203.526 140.579 203.369L140.666 196.606C140.669 196.357 140.596 196.114 140.456 195.909Z" fill="#E6E6E6"/>
<path d="M139.786 198.469H135.342V200.692H139.786V198.469Z" fill="white"/>
<path d="M147.58 188.075H145.63C145.562 188.075 145.496 188.102 145.447 188.151C145.399 188.199 145.372 188.265 145.372 188.334V189.19C145.372 189.258 145.399 189.324 145.447 189.372C145.496 189.421 145.562 189.448 145.63 189.448H145.953V190.731H147.257V189.448H147.58C147.649 189.448 147.714 189.421 147.763 189.372C147.811 189.324 147.839 189.258 147.839 189.19V188.334C147.839 188.265 147.811 188.199 147.763 188.151C147.714 188.102 147.649 188.075 147.58 188.075Z" fill="#E6E6E6"/>
<path d="M149.533 195.909C148.339 194.161 147.728 192.08 147.789 189.965C147.79 189.916 147.774 189.868 147.744 189.83C147.714 189.791 147.672 189.764 147.624 189.754V189.384H145.565V189.748H145.536C145.509 189.748 145.481 189.754 145.456 189.765C145.43 189.775 145.407 189.791 145.387 189.811C145.367 189.83 145.352 189.854 145.341 189.879C145.331 189.905 145.325 189.932 145.325 189.96C145.325 189.965 145.326 189.97 145.326 189.975C145.516 192.134 144.934 194.291 143.682 196.06C143.61 196.164 143.573 196.287 143.577 196.413L143.802 203.379C143.808 203.535 143.873 203.682 143.984 203.791C144.096 203.899 144.245 203.96 144.4 203.961H149.058C149.215 203.96 149.366 203.898 149.477 203.787C149.589 203.676 149.653 203.526 149.656 203.369L149.743 196.606C149.745 196.357 149.672 196.114 149.533 195.909Z" fill="#E6E6E6"/>
<path d="M148.863 198.469H144.418V200.692H148.863V198.469Z" fill="white"/>
<path d="M156.657 188.075H154.707C154.638 188.075 154.572 188.102 154.524 188.151C154.476 188.199 154.448 188.265 154.448 188.334V189.19C154.448 189.258 154.476 189.324 154.524 189.372C154.572 189.421 154.638 189.448 154.707 189.448H155.03V190.731H156.334V189.448H156.657C156.725 189.448 156.791 189.421 156.839 189.372C156.888 189.324 156.915 189.258 156.915 189.19V188.334C156.915 188.265 156.888 188.199 156.839 188.151C156.791 188.102 156.725 188.075 156.657 188.075Z" fill="#E6E6E6"/>
<path d="M158.61 195.909C157.415 194.161 156.805 192.08 156.866 189.965C156.867 189.916 156.851 189.868 156.821 189.83C156.791 189.791 156.748 189.764 156.701 189.754V189.384H154.641V189.748H154.613C154.585 189.748 154.558 189.754 154.532 189.765C154.507 189.775 154.483 189.791 154.464 189.811C154.444 189.83 154.429 189.854 154.418 189.879C154.407 189.905 154.402 189.932 154.402 189.96C154.402 189.965 154.402 189.97 154.403 189.975C154.593 192.134 154.01 194.291 152.759 196.06C152.687 196.164 152.65 196.287 152.654 196.413L152.879 203.379C152.884 203.535 152.949 203.682 153.061 203.791C153.172 203.899 153.321 203.96 153.477 203.961H158.134C158.292 203.96 158.442 203.898 158.554 203.787C158.666 203.676 158.73 203.526 158.733 203.369L158.819 196.606C158.822 196.357 158.749 196.114 158.61 195.909Z" fill="#E6E6E6"/>
<path d="M157.939 198.469H153.495V200.692H157.939V198.469Z" fill="white"/>
<path d="M182.9 171.056H178.79C178.718 171.056 178.647 171.07 178.581 171.097C178.515 171.125 178.455 171.165 178.404 171.216C178.354 171.266 178.314 171.326 178.286 171.392C178.259 171.459 178.245 171.529 178.245 171.601V173.405C178.245 173.55 178.302 173.689 178.404 173.791C178.507 173.893 178.645 173.951 178.79 173.951H179.471V176.654H182.219V173.951H182.9C183.045 173.951 183.183 173.893 183.286 173.791C183.388 173.689 183.445 173.55 183.445 173.405V171.601C183.445 171.529 183.431 171.459 183.404 171.392C183.376 171.326 183.336 171.266 183.286 171.216C183.235 171.165 183.175 171.125 183.109 171.097C183.043 171.07 182.972 171.056 182.9 171.056Z" fill="#E6E6E6"/>
<path d="M187.018 187.571C184.5 183.886 183.213 179.5 183.341 175.039C183.343 174.936 183.31 174.836 183.246 174.755C183.183 174.674 183.094 174.617 182.993 174.595V173.815H178.652V174.584H178.592C178.533 174.584 178.476 174.595 178.422 174.618C178.367 174.64 178.318 174.673 178.277 174.715C178.236 174.756 178.203 174.805 178.181 174.859C178.158 174.913 178.147 174.971 178.147 175.03C178.147 175.041 178.147 175.051 178.148 175.062C178.49 179.83 177.335 184.106 174.684 187.89C174.531 188.108 174.453 188.369 174.461 188.634L174.936 203.32C174.947 203.648 175.085 203.958 175.32 204.187C175.555 204.415 175.869 204.545 176.196 204.547H186.016C186.347 204.544 186.665 204.412 186.9 204.179C187.136 203.946 187.271 203.63 187.277 203.298L187.46 189.04C187.465 188.517 187.311 188.004 187.018 187.571Z" fill="#E6E6E6"/>
<path d="M185.463 192.449H176.916C176.789 192.449 176.664 192.476 176.55 192.529C176.435 192.582 176.332 192.659 176.25 192.755C176.168 192.851 176.107 192.964 176.072 193.085C176.038 193.207 176.029 193.335 176.049 193.46L177.34 201.856H184.757L186.326 193.488C186.349 193.361 186.345 193.231 186.313 193.106C186.28 192.981 186.221 192.865 186.138 192.766C186.056 192.667 185.953 192.587 185.836 192.532C185.719 192.477 185.592 192.449 185.463 192.449Z" fill="white"/>
<path d="M185.144 117.271H160.641C162.354 108.008 161.96 96.8221 160.641 84.7928H185.144C183.861 96.8221 183.477 108.008 185.144 117.271Z" fill="#E6E6E6"/>
<path d="M173.04 106.051C176.301 106.051 178.945 103.407 178.945 100.146C178.945 96.8847 176.301 94.2409 173.04 94.2409C169.78 94.2409 167.136 96.8847 167.136 100.146C167.136 103.407 169.78 106.051 173.04 106.051Z" fill="white"/>
<path d="M162.708 160.378H138.205C139.918 151.115 139.524 139.929 138.205 127.9H162.708C161.424 139.929 161.04 151.115 162.708 160.378Z" fill="#E6E6E6"/>
<path d="M150.604 149.158C153.865 149.158 156.508 146.514 156.508 143.253C156.508 139.992 153.865 137.348 150.604 137.348C147.343 137.348 144.699 139.992 144.699 143.253C144.699 146.514 147.343 149.158 150.604 149.158Z" fill="white"/>
<path d="M199.02 119.338H174.517C176.23 110.074 175.836 98.8889 174.517 86.8596H199.02C197.736 98.8889 197.352 110.074 199.02 119.338Z" fill="#E6E6E6"/>
<path d="M186.916 108.118C190.177 108.118 192.82 105.474 192.82 102.213C192.82 98.9515 190.177 96.3077 186.916 96.3077C183.655 96.3077 181.011 98.9515 181.011 102.213C181.011 105.474 183.655 108.118 186.916 108.118Z" fill="white"/>
<path d="M199.02 117.861H174.517C176.23 108.598 175.836 97.4126 174.517 85.3833H199.02C197.736 97.4126 197.352 108.598 199.02 117.861Z" fill="#E6E6E6"/>
<path d="M186.916 106.642C190.177 106.642 192.82 103.998 192.82 100.737C192.82 97.4753 190.177 94.8315 186.916 94.8315C183.655 94.8315 181.011 97.4753 181.011 100.737C181.011 103.998 183.655 106.642 186.916 106.642Z" fill="white"/>
<path d="M199.02 119.338H174.517C176.23 110.074 175.836 98.8889 174.517 86.8596H199.02C197.736 98.8889 197.352 110.074 199.02 119.338Z" fill="#E6E6E6"/>
<path d="M186.916 108.118C190.177 108.118 192.82 105.474 192.82 102.213C192.82 98.9515 190.177 96.3077 186.916 96.3077C183.655 96.3077 181.011 98.9515 181.011 102.213C181.011 105.474 183.655 108.118 186.916 108.118Z" fill="white"/>
<path d="M204.629 115.499H124.329V124.357H204.629V115.499Z" fill="#E6E6E6"/>
<path d="M204.629 159.492H124.329V168.35H204.629V159.492Z" fill="#E6E6E6"/>
<path d="M204.629 203.485H124.329V212.343H204.629V203.485Z" fill="#E6E6E6"/>
<path d="M344.313 239.42L324.308 225.269C331.055 218.696 337.192 209.336 343.06 198.753L363.065 212.904C355.072 221.984 348.3 230.894 344.313 239.42Z" fill="#EB5C1F"/>
<path d="M344.319 224.354C347.58 224.354 350.223 221.71 350.223 218.449C350.223 215.188 347.58 212.544 344.319 212.544C341.058 212.544 338.414 215.188 338.414 218.449C338.414 221.71 341.058 224.354 344.319 224.354Z" fill="white"/>
<path d="M247.811 174.845H245.615C245.538 174.845 245.464 174.876 245.409 174.931C245.355 174.985 245.324 175.059 245.324 175.137V176.101C245.324 176.139 245.332 176.177 245.346 176.212C245.361 176.247 245.382 176.279 245.409 176.307C245.436 176.334 245.468 176.355 245.504 176.37C245.539 176.384 245.577 176.392 245.615 176.392H245.979V177.836H247.447V176.392H247.811C247.888 176.392 247.962 176.361 248.017 176.307C248.072 176.252 248.102 176.178 248.102 176.101V175.137C248.102 175.059 248.072 174.985 248.017 174.931C247.962 174.876 247.888 174.845 247.811 174.845Z" fill="#E6E6E6"/>
<path d="M250.011 183.668C248.666 181.7 247.978 179.356 248.046 176.973C248.048 176.919 248.03 176.865 247.996 176.821C247.962 176.778 247.914 176.748 247.861 176.736V176.319H245.541V176.73H245.509C245.478 176.73 245.447 176.736 245.418 176.748C245.39 176.76 245.363 176.778 245.341 176.8C245.319 176.822 245.302 176.848 245.29 176.877C245.278 176.906 245.272 176.937 245.272 176.968C245.272 176.974 245.272 176.98 245.272 176.986C245.487 179.417 244.831 181.846 243.422 183.839C243.34 183.955 243.298 184.094 243.303 184.236L243.556 192.081C243.563 192.256 243.636 192.422 243.761 192.544C243.887 192.667 244.055 192.736 244.23 192.737H249.475C249.652 192.736 249.822 192.665 249.948 192.54C250.074 192.416 250.146 192.247 250.149 192.07L250.247 184.453C250.25 184.173 250.167 183.899 250.011 183.668Z" fill="#EB5C1F"/>
<path opacity="0.2" d="M247.353 175.16C247.353 175.326 247.287 175.486 247.169 175.604C247.052 175.722 246.892 175.788 246.725 175.788C246.559 175.788 246.399 175.722 246.281 175.604C246.163 175.486 246.097 175.326 246.097 175.16" fill="black"/>
<path d="M248.989 185.179H244.561V188.132H248.989V185.179Z" fill="white"/>
<path d="M317.303 205.494H313.192C313.047 205.494 312.909 205.551 312.807 205.654C312.704 205.756 312.647 205.894 312.647 206.039V207.844C312.647 207.988 312.704 208.127 312.807 208.229C312.909 208.331 313.047 208.389 313.192 208.389H313.873V211.092H316.621V208.389H317.303C317.447 208.389 317.586 208.331 317.688 208.229C317.79 208.127 317.847 207.988 317.847 207.844V206.039C317.847 205.894 317.79 205.756 317.688 205.654C317.586 205.551 317.447 205.494 317.303 205.494Z" fill="#E6E6E6"/>
<path d="M321.42 222.009C318.902 218.324 317.615 213.938 317.743 209.477C317.745 209.375 317.712 209.274 317.649 209.193C317.585 209.112 317.496 209.055 317.395 209.033V208.253H313.054V209.022H312.994C312.936 209.022 312.878 209.033 312.824 209.056C312.77 209.078 312.721 209.111 312.679 209.153C312.638 209.194 312.605 209.243 312.583 209.297C312.561 209.351 312.549 209.409 312.549 209.468C312.549 209.479 312.55 209.489 312.55 209.5C312.892 214.268 311.738 218.545 309.086 222.328C308.933 222.546 308.855 222.807 308.864 223.072L309.338 237.758C309.35 238.086 309.487 238.396 309.722 238.625C309.957 238.853 310.271 238.983 310.599 238.985H320.418C320.749 238.982 321.067 238.85 321.302 238.617C321.538 238.384 321.673 238.068 321.679 237.737L321.862 223.478C321.867 222.955 321.713 222.442 321.42 222.009Z" fill="#EB5C1F"/>
<path opacity="0.2" d="M316.446 206.082C316.446 206.394 316.322 206.693 316.101 206.913C315.881 207.134 315.582 207.258 315.27 207.258C314.958 207.258 314.659 207.134 314.438 206.913C314.218 206.693 314.094 206.394 314.094 206.082" fill="black"/>
<path d="M319.865 226.887H311.318C311.192 226.887 311.067 226.914 310.952 226.967C310.837 227.02 310.735 227.097 310.652 227.193C310.57 227.289 310.509 227.402 310.474 227.523C310.44 227.645 310.432 227.773 310.451 227.898L311.742 236.294H319.159L320.728 227.926C320.751 227.799 320.747 227.669 320.715 227.544C320.682 227.419 320.623 227.303 320.541 227.204C320.458 227.105 320.355 227.025 320.238 226.97C320.122 226.915 319.994 226.887 319.865 226.887Z" fill="white"/>
<path d="M305.574 239.397H281.071C282.784 230.134 282.39 218.948 281.071 206.919H305.574C304.29 218.948 303.907 230.134 305.574 239.397Z" fill="#EB5C1F"/>
<path d="M293.47 228.177C296.731 228.177 299.375 225.534 299.375 222.272C299.375 219.011 296.731 216.367 293.47 216.367C290.209 216.367 287.566 219.011 287.566 222.272C287.566 225.534 290.209 228.177 293.47 228.177Z" fill="white"/>
<path d="M205.35 137.184L210.851 136.684L214.352 128.182L208.101 124.681L205.35 137.184Z" fill="#FFB8B8"/>
<path d="M255.833 160.525C256.016 160.069 256.088 159.576 256.043 159.086C255.998 158.597 255.837 158.125 255.574 157.71C255.311 157.295 254.953 156.948 254.529 156.698C254.106 156.449 253.629 156.303 253.139 156.274L244.598 155.765L243.341 159.947L252.133 162.362C252.867 162.564 253.651 162.488 254.333 162.149C255.016 161.81 255.549 161.232 255.833 160.525Z" fill="#FFB8B8"/>
<path d="M246.662 162.432L246.568 154.584L227.597 151.557L212.983 134.793C212.222 133.921 211.171 133.354 210.025 133.197C208.879 133.041 207.714 133.305 206.748 133.941C206.162 134.326 205.669 134.835 205.302 135.431C204.935 136.028 204.704 136.698 204.624 137.395C204.545 138.091 204.619 138.796 204.842 139.46C205.065 140.124 205.431 140.731 205.914 141.238L217.971 156.078L246.662 162.432Z" fill="#D3B4A7"/>
<path d="M201.1 250.714H206.101L218.504 194.628L231.354 211.954L238.855 249.464H243.606L242.606 209.203L225.853 166.192H209.351C204.841 174.354 201.304 182.768 205.35 191.448L201.1 250.714Z" fill="#2F2E41"/>
<path d="M235.79 254.121C235.734 254.298 235.717 254.484 235.74 254.668C235.762 254.852 235.824 255.029 235.92 255.188C236.016 255.346 236.145 255.482 236.298 255.587C236.451 255.692 236.625 255.763 236.807 255.795L249.044 257.967C249.528 258.055 250.027 257.964 250.447 257.71C250.868 257.455 251.181 257.056 251.328 256.587C251.471 256.138 251.451 255.654 251.272 255.219C251.093 254.784 250.766 254.426 250.349 254.207C247.659 252.826 245.343 250.812 243.601 248.34C242.256 249.592 240.753 249.474 239.157 248.551L237.464 248.763L235.79 254.121Z" fill="#2F2E41"/>
<path d="M198.784 254.121C198.729 254.298 198.712 254.484 198.735 254.668C198.757 254.852 198.819 255.029 198.915 255.188C199.011 255.346 199.14 255.482 199.293 255.587C199.446 255.692 199.62 255.763 199.802 255.795L212.039 257.967C212.522 258.055 213.022 257.964 213.442 257.71C213.863 257.455 214.176 257.056 214.323 256.587C214.465 256.138 214.446 255.654 214.267 255.219C214.088 254.784 213.761 254.426 213.344 254.207C210.654 252.826 208.338 250.812 206.596 248.34C205.251 249.592 203.748 249.474 202.152 248.551L200.459 248.763L198.784 254.121Z" fill="#2F2E41"/>
<path d="M214.477 131.308C218.343 131.308 221.478 128.173 221.478 124.306C221.478 120.439 218.343 117.304 214.477 117.304C210.61 117.304 207.476 120.439 207.476 124.306C207.476 128.173 210.61 131.308 214.477 131.308Z" fill="#FFB8B8"/>
<path d="M208.226 168.067L226.478 167.567L221.118 150.695C224.449 145.354 221.097 140.018 216.352 134.684L212.601 132.183L206.601 131.683C204.002 134.463 202.581 138.141 202.633 141.947C202.752 150.095 204.195 158.965 208.226 168.067Z" fill="#D3B4A7"/>
<path d="M250.162 179.425C250.509 179.077 250.77 178.652 250.921 178.184C251.072 177.717 251.11 177.22 251.031 176.734C250.952 176.249 250.76 175.79 250.468 175.394C250.177 174.998 249.796 174.676 249.357 174.456L241.705 170.628L238.904 173.978L246.037 179.658C246.634 180.132 247.383 180.371 248.144 180.328C248.905 180.285 249.623 179.963 250.162 179.425Z" fill="#FFB8B8"/>
<path d="M240.98 177.57L243.981 170.318L227.73 160.071L220.888 138.909C220.532 137.808 219.789 136.873 218.796 136.278C217.804 135.683 216.63 135.467 215.491 135.672C214.801 135.795 214.147 136.069 213.575 136.474C213.003 136.878 212.527 137.403 212.18 138.012C211.833 138.62 211.624 139.298 211.568 139.996C211.512 140.695 211.609 141.397 211.854 142.053L217.102 160.44L240.98 177.57Z" fill="#D3B4A7"/>
<path d="M202.975 121.555C202.975 124.28 204.744 128.499 206.976 130.307C208.477 131.524 210.461 131.473 211.226 129.807C212.011 128.099 214.716 124.082 219.477 121.555C225.824 118.187 217.227 112.424 211.226 113.303C206.717 113.963 202.975 116.998 202.975 121.555Z" fill="#2F2E41"/>
<path d="M207.226 117.804C209.987 117.804 212.226 115.565 212.226 112.803C212.226 110.041 209.987 107.802 207.226 107.802C204.464 107.802 202.225 110.041 202.225 112.803C202.225 115.565 204.464 117.804 207.226 117.804Z" fill="#2F2E41"/>
<path d="M212.976 111.052C212.976 109.792 212.499 108.577 211.641 107.653C210.783 106.73 209.608 106.164 208.351 106.07C208.475 106.061 208.599 106.051 208.726 106.051C210.052 106.051 211.324 106.578 212.262 107.516C213.2 108.454 213.727 109.726 213.727 111.052C213.727 112.379 213.2 113.651 212.262 114.589C211.324 115.527 210.052 116.054 208.726 116.054C208.599 116.054 208.475 116.044 208.351 116.035C209.608 115.941 210.783 115.375 211.641 114.451C212.499 113.527 212.976 112.313 212.976 111.052Z" fill="#2F2E41"/>
<path d="M214.602 126.807C215.223 126.807 215.727 126.135 215.727 125.306C215.727 124.478 215.223 123.806 214.602 123.806C213.98 123.806 213.477 124.478 213.477 125.306C213.477 126.135 213.98 126.807 214.602 126.807Z" fill="#FFB8B8"/>
<path d="M356.287 241.542H278.442L261.958 163.606H247.889V160.109H264.792L281.276 238.045H356.287V241.542Z" fill="#3F3D56"/>
<path d="M289.85 255.78C293.988 255.78 297.343 252.425 297.343 248.286C297.343 244.148 293.988 240.793 289.85 240.793C285.712 240.793 282.357 244.148 282.357 248.286C282.357 252.425 285.712 255.78 289.85 255.78Z" fill="#D3B4A7"/>
<path d="M345.797 255.78C349.936 255.78 353.29 252.425 353.29 248.286C353.29 244.148 349.936 240.793 345.797 240.793C341.659 240.793 338.304 244.148 338.304 248.286C338.304 252.425 341.659 255.78 345.797 255.78Z" fill="#D3B4A7"/>
<path d="M354.868 239.895H279.129L265.766 173.847H367.409C367.928 173.847 368.44 173.96 368.911 174.177C369.382 174.394 369.801 174.71 370.138 175.104C370.475 175.499 370.723 175.961 370.864 176.46C371.005 176.959 371.037 177.483 370.956 177.996L358.415 236.862C358.286 237.708 357.856 238.481 357.205 239.038C356.554 239.594 355.725 239.899 354.868 239.895ZM279.951 238.896H354.868C355.486 238.899 356.085 238.679 356.555 238.277C357.025 237.875 357.334 237.318 357.428 236.706L369.969 177.841C370.027 177.471 370.005 177.093 369.903 176.732C369.801 176.372 369.622 176.038 369.379 175.754C369.135 175.469 368.833 175.241 368.493 175.084C368.153 174.927 367.783 174.846 367.409 174.846H266.978L279.951 238.896Z" fill="#3F3D56"/>
<path d="M293.853 239.684L285.101 174.428L286.087 174.265L294.838 239.521L293.853 239.684Z" fill="#3F3D56"/>
<path d="M342.515 239.183L341.528 239.023L350.024 174.267L351.011 174.427L342.515 239.183Z" fill="#3F3D56"/>
<path d="M319.33 174.347H318.331V239.602H319.33V174.347Z" fill="#3F3D56"/>
<path d="M270.869 191.833L270.866 192.832L367.574 193.066L367.577 192.067L270.869 191.833Z" fill="#3F3D56"/>
<path d="M360.752 222.698L275.792 223.279L275.799 224.278L360.759 223.698L360.752 222.698Z" fill="#3F3D56"/>
<path d="M249.388 164.355C252.423 164.355 254.883 163.013 254.883 161.357C254.883 159.702 252.423 158.36 249.388 158.36C246.353 158.36 243.893 159.702 243.893 161.357C243.893 163.013 246.353 164.355 249.388 164.355Z" fill="#3F3D56"/>
</g>
<defs>
<clipPath id="clip0_407_255">
<rect width="105.646" height="105.646" fill="white" transform="translate(0 49.3392) rotate(-27.8412)"/>
</clipPath>
<clipPath id="clip1_407_255">
<rect width="260" height="217" fill="white" transform="translate(111 41)"/>
</clipPath>
</defs>
</svg>
